<?xml version="1.0" encoding="utf-8"?>
<!-- Svg Vector Icons : http://www.onlinewebfonts.com/icon -->
<!DOCTYPE svg PUBLIC "-//W3C//DTD SVG 1.1//EN" "http://www.w3.org/Graphics/SVG/1.1/DTD/svg11.dtd">
<svg version="1.1" xmlns="http://www.w3.org/2000/svg" xmlns:xlink="http://www.w3.org/1999/xlink" x="0px" y="0px" viewBox="0 0 1000 1000" enable-background="new 0 0 1000 1000" xml:space="preserve">
<metadata> Svg Vector Icons : http://www.onlinewebfonts.com/icon </metadata>
<g><g transform="translate(0.000000,511.000000) scale(0.100000,-0.100000)"><path fill="#ffffff" d="M4567.5,4997.9C2369.6,4808.1,551.3,3141.7,160.3,955.1c-79.7-436.5-79.7-1256.5-3.8-1693c318.9-1780.4,1586.8-3245.6,3306.4-3822.6c497.3-167.1,949-235.4,1537.4-235.4c588.4,0,1043.9,68.4,1533.6,235.4c1715.8,573.2,2995.1,2046,3306.3,3811.2c79.7,447.9,79.7,1264.1,0,1708.2C9396.1,3456.7,7099.5,5214.3,4567.5,4997.9z M6074.5,4417.1C6905.9,4200.8,7517,3851.5,8132,3236.6c611.2-615,956.6-1214.7,1184.4-2057.5c94.9-341.6,102.5-432.7,102.5-1074.3c-3.8-637.7-11.4-736.4-102.5-1074.3c-224-838.9-573.2-1442.5-1184.4-2057.5c-615-611.2-1218.5-960.4-2057.5-1184.4c-337.8-91.1-436.5-98.7-1074.3-102.5c-641.5,0-732.6,7.6-1074.3,102.5c-842.7,227.8-1442.5,573.2-2057.5,1184.4C1037.2-2195.6,619.6-1246.6,570.2-100.2c-56.9,1302,379.6,2425.7,1294.5,3340.5c664.3,660.5,1442.5,1074.3,2361.2,1248.9C4700.4,4576.6,5600,4542.4,6074.5,4417.1z"/><path d="M3758.9,3995.8c-106.3-53.1-258.1-178.4-349.2-284.7c-205-242.9-410-360.6-759.2-432.7c-163.2-34.2-341.6-102.5-425.2-159.4c-212.6-144.2-330.2-345.4-398.6-664.3c-72.1-349.2-189.8-554.2-432.7-759.2C1033.4,1391.7,927.1,977.9,1090.3,511c41.8-117.7,75.9-299.9,75.9-406.2c0-106.3-34.2-288.5-75.9-406.2C927.1-768.3,1033.4-1182,1394-1485.7c242.9-205,360.6-410,432.7-751.7c102.5-489.7,372-751.6,873.1-842.7c284.7-53.2,512.5-186,694.7-406.2c303.7-368.2,725-482.1,1184.4-322.7c292.3,98.7,550.4,102.5,827.6,3.8c466.9-163.2,880.7-57,1184.4,303.7c197.4,235.4,421.3,368.2,709.8,421.4c516.3,94.9,766.8,345.4,876.9,869.3c64.5,311.3,193.6,523.8,429,725.1c360.6,303.7,466.9,717.4,303.7,1184.3c-41.7,117.7-75.9,299.9-75.9,406.2c0,106.3,34.2,288.5,75.9,406.2c163.2,466.9,56.9,880.7-303.7,1184.4c-235.4,201.2-368.2,421.4-421.3,709.9c-91.1,501.1-353.1,770.6-842.7,873.1c-334,72.1-550.4,189.8-736.5,417.6c-303.7,368.2-725,482.1-1184.3,322.7c-292.3-98.7-550.4-102.5-827.6-3.8C4290.4,4121,3998.1,4113.5,3758.9,3995.8z M5725.3,3285.9c148-125.3,413.8-482.1,413.8-561.8c0-125.3-106.3-227.8-231.5-227.8c-83.5,0-151.8,53.1-337.9,265.7c-125.3,148-227.8,299.9-227.8,341.6C5341.9,3278.3,5592.5,3392.2,5725.3,3285.9z M4263.8,3061.9c68.3-75.9,68.3-87.3,0-406.2c-34.2-182.2-94.9-360.6-125.3-394.8c-125.3-140.4-391-38-391,148.1c0,151.8,121.5,596,182.2,668.1C4005.7,3164.4,4176.5,3160.6,4263.8,3061.9z M3018.7,2481.1c337.9-64.5,394.8-106.3,379.6-284.7c-19-205-125.3-239.2-504.9-170.8c-330.3,64.5-436.5,129.1-436.5,269.5c0,102.5,125.3,239.1,220.2,239.1C2711.2,2534.3,2866.9,2511.5,3018.7,2481.1z M5417.8,2458.4c91.1-91.1,94.9-186,22.8-288.5c-45.6-56.9-113.9-75.9-387.2-91.1c-372-22.8-470.7,7.6-523.8,163.2c-30.4,83.5-22.8,117.7,53.1,197.4c83.5,87.3,113.9,94.9,425.2,94.9C5292.5,2534.3,5353.3,2522.9,5417.8,2458.4z M6845.2,2371.1c148-129.1,102.5-246.7-170.8-463.1c-125.3-94.9-265.7-186-315.1-205c-170.8-64.5-326.4,87.3-288.5,284.7c11.4,72.1,539,470.7,622.6,470.7C6719.9,2458.4,6788.2,2420.4,6845.2,2371.1z M7498,2393.8c53.2-45.5,110.1-186,159.4-387.2c72.1-280.9,72.1-322.7,22.8-402.4c-72.1-106.3-178.4-136.7-296.1-79.7c-64.5,34.2-110.1,117.7-170.8,326.5c-110.1,372-106.3,432.7,11.4,527.6C7346.2,2477.3,7399.4,2477.3,7498,2393.8z M3037.7,1596.7c64.5-75.9,178.4-478.3,178.4-641.5c0-201.2-197.4-307.5-353-193.6c-64.5,45.6-212.6,527.7-216.4,687.1C2646.7,1630.8,2912.4,1733.3,3037.7,1596.7z M5584.9,1285.4c284.7-136.7,478.3-341.6,626.3-649.1c79.7-174.6,98.7-261.9,98.7-531.5c0-394.8-110.1-660.5-379.6-930c-269.5-269.6-535.2-379.6-930-379.6c-269.5,0-356.8,19-535.2,102.5c-299.9,136.6-504.9,337.9-649.1,630.1c-110.1,224-125.3,288.5-125.3,577c0,269.5,15.2,356.8,98.7,531.5C4119.6,1342.3,4901.5,1623.2,5584.9,1285.4z M7592.9,993.1c432.8-216.4,539-375.8,368.2-546.6c-106.3-106.3-170.8-94.9-482.1,75.9c-360.6,201.2-436.5,334-277.1,493.5C7300.6,1114.6,7353.8,1110.8,7592.9,993.1z M2654.3,609.7c87.3-79.7,87.3-246.7,3.8-322.7C2525.2,169.4,2073.5-43.2,2009-20.4c-170.8,60.7-246.7,220.2-163.2,345.4c49.4,79.7,542.8,345.4,645.3,349.2C2544.2,674.2,2616.3,647.6,2654.3,609.7z M7331,271.8c34.2-30.4,60.7-60.7,64.5-64.5c0-3.8,22.8-144.3,49.4-311.3c64.5-383.4,30.4-489.7-170.8-504.9c-178.4-15.2-224,45.5-284.7,383.4c-64.5,368.2-64.5,394.8,22.8,482.1C7103.3,347.8,7251.3,355.4,7331,271.8z M2946.6-453.2c83.5-102.5,79.7-208.8-11.4-303.7c-26.6-30.4-193.6-60.7-387.2-72.1c-318.9-22.8-353-19-429,57C2009-662,2016.5-525.4,2138-430.4c83.5,64.6,155.6,79.7,417.6,79.7C2847.9-350.7,2874.5-358.3,2946.6-453.2z M8234.5-605.1c129-117.7,87.3-273.3-129.1-478.3c-296.1-273.3-345.4-299.9-463.1-254.4c-117.7,41.8-189.8,201.2-140.4,296.1c19,37.9,136.6,163.3,261.9,284.7C8006.7-529.1,8113-495,8234.5-605.1z M2809.9-1497.1c269.5-280.9,318.9-383.4,235.4-508.7c-30.4-49.3-102.5-102.5-159.4-113.9c-91.1-26.5-129.1,0-341.6,231.6c-269.5,296.1-315.1,455.5-155.6,565.6C2525.2-1227.6,2574.6-1246.6,2809.9-1497.1z M3853.8-1383.2c60.7-53.2,56.9-193.6-15.2-520c-75.9-330.3-170.8-421.4-356.8-345.5c-151.8,64.6-167,140.5-94.9,485.9C3478-1349.1,3641.3-1216.2,3853.8-1383.2z M6932.5-1421.2c53.1-94.9,53.1-110.1-15.2-205c-94.9-121.4-603.6-330.2-732.6-299.9c-106.3,26.6-178.4,170.8-144.2,296.1c15.2,72.1,83.5,121.5,296.1,212.6C6678.1-1273.1,6852.7-1273.1,6932.5-1421.2z M5193.9-1964c132.9-94.9,265.7-201.2,292.3-235.4c106.3-148.1,3.8-353-182.2-353c-91.1,0-546.6,292.3-615,394.8c-87.3,125.3,38,364.4,189.8,364.4C4916.7-1793.2,5057.2-1869.1,5193.9-1964z M7088.1-1964c235.4-26.6,277.1-41.8,330.3-151.8c45.6-87.3,11.4-205-79.7-280.9c-91.1-75.9-690.8-19-785.8,75.9c-170.8,170.8-15.2,432.7,231.5,394.8C6837.5-1937.5,6974.2-1952.7,7088.1-1964z M4203.1-2286.7c106.3-57,227.8-618.8,174.6-789.6c-34.2-102.5-189.8-167.1-303.7-121.5c-110.1,37.9-159.4,186-197.4,573.2c-22.8,235.3-19,254.3,64.5,315C4043.6-2237.4,4104.4-2233.6,4203.1-2286.7z M6063.1-2286.7c144.2-75.9,155.7-167,79.7-497.3c-72.1-307.5-125.3-402.4-231.6-413.7c-129-19-189.8,3.8-246.7,91.1c-53.1,79.7-53.1,117.7,15.2,406.2C5770.8-2305.7,5880.9-2188,6063.1-2286.7z"/></g></g>
</svg>